<svg width="24" height="24" viewBox="0 0 24 24" fill="none" xmlns="http://www.w3.org/2000/svg">
<g clip-path="url(#clip0)">
<path d="M9.21 16.29C8.82 16.68 8.19 16.68 7.8 16.29L4.21 12.7C3.82 12.31 3.82 11.68 4.21 11.29L7.8 7.7C8.19 7.31 8.82 7.31 9.21 7.7C9.6 8.09 9.6 8.72 9.21 9.11L7.33 11H16C16.55 11 17 11.45 17 12C17 12.55 16.55 13 16 13H7.33L9.21 14.88C9.6 15.27 9.59 15.91 9.21 16.29Z" fill="black"/>
<path fill-rule="evenodd" clip-rule="evenodd" d="M5 3H19C20.1 3 21 3.9 21 5V19C21 20.1 20.1 21 19 21H5C3.9 21 3 20.1 3 19V16C3 15.45 3.45 15 4 15C4.55 15 5 15.45 5 16V18C5 18.55 5.45 19 6 19H18C18.55 19 19 18.55 19 18V6C19 5.45 18.55 5 18 5H6C5.45 5 5 5.45 5 6V8C5 8.55 4.55 9 4 9C3.45 9 3 8.55 3 8V5C3 3.9 3.89 3 5 3Z" fill="black"/>
</g>
<defs>
<clipPath id="clip0">
<rect width="24" height="24" fill="white"/>
</clipPath>
</defs>
</svg>
