<svg xmlns="http://www.w3.org/2000/svg" height="512pt" version="1.1" viewBox="0 0 512 512" width="512pt">
<g id="surface1">
<path d="M 512 0 L 98.226562 0 L 98.226562 284.359375 L 0 284.359375 L 0 512 L 226.453125 512 L 226.453125 414.117188 L 512 414.117188 Z M 196.453125 481.976562 L 30 481.976562 L 30 314.386719 L 98.226562 314.386719 L 98.226562 414.117188 L 196.453125 414.117188 Z M 196.453125 384.089844 L 128.226562 384.089844 L 128.226562 314.386719 L 196.453125 314.386719 Z M 482 384.089844 L 226.453125 384.089844 L 226.453125 305.632812 L 403.328125 130.214844 L 403.328125 184.28125 L 433.328125 184.28125 L 433.328125 79.191406 L 328.320312 79.191406 L 328.320312 109.214844 L 381.878906 109.214844 L 205.277344 284.359375 L 128.226562 284.359375 L 128.226562 30.023438 L 482 30.023438 Z M 482 384.089844 " style=" stroke:none;fill-rule:nonzero;fill:rgb(0%,0%,0%);fill-opacity:1;" />
</g>
</svg>